<?xml version="1.0" encoding="UTF-8"?>
<svg xmlns="http://www.w3.org/2000/svg" viewBox="0 0 980.89 1838.19">
  <defs>
    <style>
      .cls-1 {
        isolation: isolate;
      }

      .cls-2 {
        fill: #ddcfaf;
        mix-blend-mode: multiply;
      }

      .cls-3 {
        fill: #efd7a0;
      }
    </style>
  </defs>
  <g class="cls-1">
    <g id="Layer_2" data-name="Layer 2">
      <g id="Path">
        <path class="cls-3" d="m898.92,463.55c-2.78,26.58-21,50.9-47.36,71.99-47.42,37.96-121.16,65.47-178.67,76.87-132.64,26.3-206.42,2.33-299.95,37.74-24.36,9.23-51.54,31.91-41.68,54.18.09.2.18.41.28.62s.2.43.31.64c.12.24.25.49.38.73.21.38.42.76.65,1.12.22.37.46.73.7,1.08.1.16.2.31.31.45.24.33.48.66.73.98s.51.64.78.95c0,.02.03.04.05.06.28.33.57.65.87.96.32.34.64.66.97.98,8.64,8.26,22.5,11.45,35.06,13.44,0,0,.03,0,.04,0,85.79,13.64,163.45,7.86,214.19,8.52,49.4.64,87.34,1.14,121.23,12.07,13.93,4.49,27.17,10.74,40.25,19.48,45.65,30.54,85.59,89.03,83.85,152.25-2.51,91.35-90.85,150.05-121.49,170.4-174.15,115.72-397.32,48.81-408.81,102.58-.47,2.21-.55,4.42-.31,6.59,1.27,11.59,11.48,22.42,18.55,29.88,35.31,37.25,86.68,18.36,175.13,19.81.1,0,.19,0,.29,0,4.25.07,8.59.19,13.01.37.23,0,.46.01.69.02,13.85.56,28.57,1.67,44.22,3.59,52.76,6.46,91.67,11.74,128.25,41.41,7.85,6.36,16.19,14.33,24.17,23.49,24.33,27.92,45.29,66.87,38.44,104.76-14.21,78.71-145.18,114.68-220.14,135.48-127.02,35.25-215.26,22.25-225.52,59.93-.05.18-.1.36-.13.54-6.63,26.52,30.42,56.92,32.77,58.8,25.46,20.44,61.95,28.49,98.39,30.38,56.37,2.95,112.62-8.84,127.75-12.29,9.27-2.11,33.13-5.06,59.38,2.78,19.03,5.68,36.5,21.42,36.35,40.48-.2,24.79-44.22,41.03-65.82,49.09-1.12.42-2.23.83-3.35,1.23h0c-12.22,4.39-24.35,7.85-36.3,10.53-87.78,19.74-165.16-2.64-186.72-9.44-44.62-14.07-88.72-27.98-121.66-71.21-9.99-13.11-43.27-56.79-32.15-110.49,2.56-12.39,7.06-23.24,12.39-32.57,12.46-21.87,29.45-35.45,36.74-41.13,3.24-2.53,7.06-5.28,12.53-8.24,13.06-7.07,35.55-15.38,82.07-24.77,35.73-7.21,65.87-8.12,115.86-15.53.73-.11,1.47-.22,2.21-.33,1.85-.27,3.99-.6,6.39-.98,1.52-.23,3.06-.48,4.62-.73.62-.1,1.24-.21,1.87-.3,8.18-1.33,16.87-2.83,26.16-4.57,3.13-.57,6.33-1.18,9.6-1.82,4.94-.96,10.09-1.98,15.38-3.07,16.2-3.34,31.41-6.92,48.81-11.25,29.21-7.27,62.63-20.3,75.75-44.01,2.94-5.31,4.86-11.16,5.49-17.6,2.31-23.85-16.16-45.96-38.62-56.57-22.45-10.6-48.24-12.16-73.24-13.53-82.88-4.54-165.87,9.41-239.99-13.12-30.85-9.38-54.5-18.1-73.8-38.08-7.56-7.83-31.16-32.26-32.32-69.68-.25-8.14.6-15.76,2.17-22.83,2.99-13.35,8.6-24.68,14.38-33.58,7.29-11.24,14.86-18.62,17.79-21.35,19.43-18.13,43.15-26.07,63.72-29.72,16.32-2.91,30.64-3.12,39.28-3.6,89.16-4.97,285.7-15.93,362.95-118.29,11.18-14.64,24.16-36.84,32.97-60.04,11.09-29.21,15.55-60.01,1.4-79.26-.71-.96-1.9-2.5-4.22-4.84-37.7-38.26-120.05-36-139.62-35.48-45.86,1.21-145,3.38-238.9-7.45-20.19-2.32-53.26-6.79-83.21-30.67-9.88-7.87-41.17-32.81-41.2-69.55-.02-23.65,12.91-41.06,22.46-53.57,25.07-32.82,58.44-47.26,71.39-52.32.97-.38,1.96-.76,2.95-1.12,129.87-48.59,380.51-7.91,442.09-101.81.37-.56.92-1.41,1.61-2.51,4.85-7.84,16.11-28.62,12.85-52.92-.32-2.39-.77-4.73-1.34-7,0-.01-.01-.03-.01-.04-2.26-9.02-6.37-17.17-11.72-24.6-.15-.21-.3-.42-.46-.63-.68-.93-1.38-1.85-2.1-2.76-7.56-9.53-17.1-17.85-27.19-25.31-8.92-6.6-18.28-12.51-27.08-17.99-84.45-52.62-215.15-126.13-257.88-175.94-6.54-7.62-26.87-31.3-27.11-60.78-.01-1.66.04-3.34.16-5.04.38-5.38.62-8.71,2.45-12.88,5.96-13.59,23.49-23.75,100.82-28.36,49.36-2.94,80.93-4.83,82.95,3.45,2.6,10.65-47.66,22.23-72.96,42.41-7.83,6.25-13.26,13.32-14.01,21.44-2.91,31.65,67.79,53.66,145.82,98.81,43.02,24.91,232.92,134.81,222.93,230.17Z"/>
        <path class="cls-2" d="m782.85,413.48c-2.91-5.28-6.3-10.76-10.27-16.17-.15-.21-.3-.42-.46-.63-.68-.93-1.38-1.85-2.1-2.76-7.19-9.22-16.11-18.09-27.19-25.31-8.92-6.6-18.28-12.51-27.08-17.99-84.45-52.62-215.15-126.13-257.88-175.94-6.54-7.62-26.87-31.3-27.11-60.78.4-4.24,1.38-8.32,3.1-12.1,1.31-.05,2.87.22,4.75.83,5.03,14.01,14.16,35.5,30.59,58.12,21.78,29.99,48.07,50.51,185.78,128.62,35.68,20.24,58.95,33.05,84.25,60.17,22.17,23.77,35.68,47.57,43.62,63.94Z"/>
        <path class="cls-2" d="m782.45,390.75c-.18-.15-.35-.31-.53-.46-.17-.6-.35-1.21-.55-1.8.36.75.72,1.5,1.08,2.26Z"/>
        <path class="cls-2" d="m583.72,1788.35c-12.22,4.39-24.35,7.85-36.3,10.53-37.07-16.03-45.62-50.57-107.21-71.33-37.95-12.8-45.08-3.18-83.38-20.34-20.03-8.98-59.89-26.84-64.26-59.38-1.63-12.17,2.18-22.86,5.69-29.95-6.63,26.52,30.42,56.92,32.77,58.8,25.46,20.44,61.95,28.49,98.39,30.38,5.85,1.16,10.12,1.86,12.15,2.19,57.59,55.94,102.64,72.91,134.03,77.53,2.1.31,4.86.81,8.12,1.57Z"/>
        <path class="cls-2" d="m657.27,1418.44c-2,14.63-6.92,24.11-9.98,29.1-35.72,58.3-144.44,39.5-288.22,67.25-12.91,2.49-35.02,7.08-62.45,16.81-35.13,12.47-61.8,27.28-78.06,37.23,18.9-18.35,33.18-31.43,37.46-34.79,2.99-2.35,5.95-4.3,5.95-4.3,1.92-1.27,4.08-2.58,6.58-3.94,13.06-7.07,35.55-15.38,82.07-24.77,35.73-7.21,65.87-8.12,115.86-15.53.73-.11,1.47-.22,2.21-.33,1.85-.27,3.99-.6,6.39-.98,1.52-.23,3.06-.48,4.62-.73.62-.1,1.24-.21,1.87-.3,7.29-1.2,16.18-2.73,26.16-4.57,3.1-.58,6.3-1.18,9.6-1.82,4.94-.96,10.09-1.98,15.38-3.07,16.2-3.34,31.41-6.92,48.81-11.25,29.21-7.27,62.63-20.3,75.75-44.01Z"/>
        <path class="cls-2" d="m331.18,1099.31c1.99-.11,3.87-.19,5.61-.27-1.42,1.84-2.09,4.93-.83,7.88-2.63-1.62-4.33-4.53-4.78-7.61Z"/>
        <path class="cls-2" d="m319.34,1108.06c-1.65-3.66,3.51-12.19,10.22-12.65,2.19-.15,4.08.59,5.43,1.36-2.31-5.67,5.89,3.36,11.1-1.04,1.58-.09,3.19-.18,4.83-.28.94-.05,1.9-.1,2.87-.15,1.3-.08,2.62-.16,3.96-.24.38-.02.75-.04,1.13-.06h.08c1.83-.11,3.69-.22,5.58-.34.21,0,.43-.02.64-.04,12.92-.79,27.23-1.77,42.51-3.1.07-.01.14-.01.21-.02.85-.08,1.71-.15,2.58-.23,4.34-.39,8.77-.81,13.25-1.26,1.25-.13,2.51-.25,3.77-.38,4-.42,8.06-.86,12.15-1.33.12-.02.24-.03.36-.04,1.3-.16,2.6-.31,3.91-.47,1.98-.23,3.97-.48,5.98-.73,1.96-.25,3.93-.5,5.91-.76,1.74-.23,3.49-.47,5.25-.7.27-.04.55-.08.83-.12.1-.02.21-.03.32-.04,2.49-.35,4.99-.71,7.5-1.08.79-.11,1.58-.23,2.37-.35.12-.02.25-.04.37-.05,87.33-13.14,184.72-41.27,233.85-106.37,11.18-14.64,24.16-36.84,32.97-60.04-7.71,38.69-22.66,63.89-35.58,80.24-38.84,49.09-105.1,73.48-218.92,98.64-.56.13-1.12.25-1.68.37-1.97.44-3.96.88-5.96,1.32-1.49.32-2.98.64-4.49.96-.86.19-1.73.38-2.6.56-.15.04-.3.07-.45.1-1.58.31-13.74,2.93-15.9,3.36-10.83,2.16-28.81,2.65-28.81,2.65-10.47.29-52.19,1.8-85.42,4.38-9.87.76-18.48,1.58-20.13-2.07Z"/>
        <path class="cls-2" d="m705.61,1317.17c-26.2-21.82-59.49-31.55-84.73-38.93-17.68-5.18-35.93-8.68-164.56-11.34-83.24-1.71-121.66-1.19-143.09-27.65-3.3-4.08-19.19-23.71-12.92-38.68.29-.69.62-1.35.99-1.98,1.27,11.59,11.48,22.42,18.55,29.88,35.31,37.25,86.68,18.36,175.13,19.81.1,0,.19,0,.29,0,4.51.12,8.84.24,13.01.37.23,0,.46.01.69.02,13.85.56,28.57,1.67,44.22,3.59,52.76,6.46,91.67,11.74,128.25,41.41,7.85,6.36,16.19,14.33,24.17,23.49Z"/>
        <path class="cls-2" d="m772.8,481.87c-7.17,15.67-17.03,30.29-28.16,41.99-43.43,45.67-171.48,35.64-415.54,62.33,129.87-48.59,380.51-7.91,442.09-101.81.37-.56.92-1.41,1.61-2.51Z"/>
        <path class="cls-2" d="m707.81,747.29c-29.42-.81-59.62,1.99-89.45,4.77-10.66,1-21.26,1.99-31.77,2.82-71.41,5.61-143.54,2.75-214.2-8.52-15.47-2.46-32.93-6.72-40.16-20.03-3.96-7.29-3.82-14.67-.97-21.65.09.2.18.41.28.62.09.21.2.42.31.64.12.24.25.49.38.73.21.38.42.76.65,1.12.22.37.46.73.7,1.08.1.15.2.3.31.45.24.33.48.66.73.98s.51.64.78.95c0,.02.03.04.05.06.28.33.56.65.87.96.31.34.64.67.97.98,10.19,9.86,27,12.39,35.06,13.44,0,0,.03,0,.04,0,85.79,13.64,163.45,7.86,214.19,8.52,49.4.64,87.34,1.14,121.23,12.07Z"/>
        <path class="cls-2" d="m898.92,463.9c-2.78,26.58-21,50.9-47.36,71.99-.21-.04-.39-.13-.53-.26-2.5-2.24,7.96-13.75,15.47-33.25,0,0,9.08-23.56,7.73-56.45-2.49-60.65-61.53-98.81-115.22-135.33-35.35-24.05-148.77-95.88-207.25-128.37-5.89-3.27-22.47-12.4-28.62-30.16-2.46-7.1-2.51-13.44-2.32-17.02,1.04-5.18,3.68-9.26,6.19-12.13,2.52-2.87,4.9-4.53,5.41-4.88,4.53-3.07,9-4.14,11.76-4.56-7.83,6.25-13.26,13.32-14.01,21.44-2.91,31.65,67.79,53.66,145.82,98.81,43.02,24.91,232.92,134.81,222.93,230.17Z"/>
        <g>
          <ellipse class="cls-3" cx="217.39" cy="577" rx="181.5" ry="70.99" transform="translate(-4.18 1.59) rotate(-.42)"/>
          <path class="cls-2" d="m398.63,575.55c.02,2.57-.31,5.1-.97,7.61-9.96-35.52-87.28-62.69-180.97-62.01-93.69.68-170.6,28.96-180.05,64.62-.7-2.49-1.07-5.02-1.08-7.59-.28-39.16,80.77-71.5,181.03-72.23,100.26-.73,181.77,30.44,182.05,69.6Z"/>
        </g>
        <g>
          <path class="cls-3" d="m972.89,734.39c-1.14,36.06-43.86,65.91-104.89,78.74-3.76.8-7.59,1.53-11.48,2.18-21.07,3.58-44.01,5.19-67.96,4.43-80.13-2.53-147.31-30.75-170.2-67.68-3.79-6.1-6.36-12.44-7.58-18.94-.64-3.35-.91-6.75-.8-10.19,1.59-50.3,84.12-88.51,184.33-85.35,100.22,3.16,180.17,46.5,178.58,96.81Z"/>
          <path class="cls-2" d="m972.89,734.38c-.1,3.3-.56,6.54-1.34,9.73-8.26-46.02-84.21-84.06-177.86-87.01-93.65-2.96-171.85,30.22-182.99,75.63-.58-3.23-.83-6.49-.72-9.79,1.59-50.3,84.12-88.52,184.33-85.35,100.21,3.16,180.17,46.51,178.58,96.81Z"/>
        </g>
        <g>
          <ellipse class="cls-3" cx="180.14" cy="1093.13" rx="181.55" ry="91.13" transform="translate(-155.65 37.37) rotate(-8.29)"/>
          <path class="cls-2" d="m359.79,1066.96c.48,3.27.6,6.54.39,9.81-16.2-43.86-97.64-68-190.36-54.5S5.93,1082.15,2.91,1128.8c-1.14-3.08-1.95-6.25-2.43-9.51-7.25-49.8,67.3-101.89,166.52-116.34,99.22-14.45,185.53,14.21,192.78,64.01Z"/>
        </g>
        <g>
          <ellipse class="cls-3" cx="792.89" cy="1250" rx="126.95" ry="189.35" transform="translate(-568.86 1830.35) rotate(-80.7)"/>
          <path class="cls-2" d="m979.38,1280.93c-.74,4.54-1.84,8.95-3.26,13.24.33-64.48-70.95-126.45-167.3-142.25-96.35-15.8-183.69,20.15-203.98,81.35.02-4.53.4-9.05,1.14-13.59,11.34-69.15,104.13-111.51,207.24-94.6,103.11,16.91,177.5,86.69,166.16,155.84Z"/>
        </g>
        <g>
          <ellipse class="cls-3" cx="647.88" cy="1727.94" rx="110.25" ry="220.26" transform="translate(-1082.79 2368.48) rotate(-89.76)"/>
          <path class="cls-2" d="m868.14,1728.87c-.02,4-.46,7.93-1.3,11.81-11.54-55.38-104.92-98.87-218.6-99.36-113.67-.48-207.42,42.22-219.43,97.5-.81-3.89-1.22-7.82-1.2-11.82.26-60.88,99.08-109.82,220.73-109.31,121.65.52,220.05,50.29,219.79,111.18Z"/>
        </g>
        <g>
          <ellipse class="cls-3" cx="502.89" cy="57.5" rx="204" ry="57.48" transform="translate(-.4 3.65) rotate(-.42)"/>
          <path class="cls-2" d="m707,55.99c.02,2.08-.36,4.13-1.11,6.16-11.12-28.71-97.98-50.52-203.32-49.76-105.34.76-191.87,23.82-202.58,52.69-.78-2.02-1.19-4.06-1.2-6.14C298.56,27.25,389.75.91,502.48.09c112.72-.82,204.29,24.21,204.52,55.89Z"/>
        </g>
      </g>
    </g>
  </g>
</svg>